# Blender v2.79 (sub 0) OBJ File: ''
# www.blender.org
mtllib track_only.mtl
o Cube_Cube.003
v 0.005000 4.000020 -36.341255
v 0.005000 3.000023 -43.680260
v 0.005000 4.000023 -43.680260
v 0.005000 3.000020 -36.341255
v -0.005000 3.000023 -43.680260
v -0.005000 3.000020 -36.341255
v -0.005000 4.000023 -43.680260
v -0.005000 4.000020 -36.341255
vt 1.000000 0.000000
vt 0.000000 1.000000
vt 0.000000 0.000000
vt 1.000000 0.000000
vt 0.000000 1.000000
vt 0.000000 0.000000
vt 1.000000 0.000000
vt 0.000000 1.000000
vt 0.000000 0.000000
vt 1.000000 0.000000
vt 0.000000 1.000000
vt 0.000000 0.000000
vt 1.000000 0.000000
vt 0.000000 1.000000
vt 0.000000 0.000000
vt 1.000000 1.000000
vt 1.000000 1.000000
vt 1.000000 1.000000
vt 1.000000 1.000000
vt 1.000000 1.000000
vn 1.0000 0.0000 0.0000
vn 0.0000 -1.0000 -0.0000
vn -1.0000 0.0000 0.0000
vn 0.0000 1.0000 0.0000
vn 0.0000 0.0000 -1.0000
vn 0.0000 0.0000 1.0000
usemtl None.003
s 1
f 1/1/1 2/2/1 3/3/1
f 4/4/2 5/5/2 2/6/2
f 6/7/3 7/8/3 5/9/3
f 8/10/4 3/11/4 7/12/4
f 5/13/5 3/11/5 2/6/5
f 4/4/6 8/14/6 6/15/6
f 1/1/1 4/16/1 2/2/1
f 4/4/2 6/17/2 5/5/2
f 6/7/3 8/18/3 7/8/3
f 8/10/4 1/19/4 3/11/4
f 5/13/5 7/20/5 3/11/5
f 4/4/6 1/19/6 8/14/6
o Cube_Cube.002
v 0.005000 4.000021 -43.372395
v 0.005000 3.000024 -50.711403
v 0.005000 4.000024 -50.711403
v 0.005000 3.000021 -43.372395
v -0.005000 3.000024 -50.711403
v -0.005000 3.000021 -43.372395
v -0.005000 4.000024 -50.711403
v -0.005000 4.000021 -43.372395
vt 1.000000 0.000000
vt 0.000000 1.000000
vt 0.000000 0.000000
vt 1.000000 0.000000
vt 0.000000 1.000000
vt 0.000000 0.000000
vt 1.000000 0.000000
vt 0.000000 1.000000
vt 0.000000 0.000000
vt 1.000000 0.000000
vt 0.000000 1.000000
vt 0.000000 0.000000
vt 1.000000 0.000000
vt 0.000000 1.000000
vt 0.000000 0.000000
vt 1.000000 1.000000
vt 1.000000 1.000000
vt 1.000000 1.000000
vt 1.000000 1.000000
vt 1.000000 1.000000
vn 1.0000 0.0000 0.0000
vn 0.0000 -1.0000 -0.0000
vn -1.0000 0.0000 0.0000
vn 0.0000 1.0000 0.0000
vn 0.0000 0.0000 -1.0000
vn 0.0000 0.0000 1.0000
usemtl None.002
s 1
f 9/21/7 10/22/7 11/23/7
f 12/24/8 13/25/8 10/26/8
f 14/27/9 15/28/9 13/29/9
f 16/30/10 11/31/10 15/32/10
f 13/33/11 11/31/11 10/26/11
f 12/24/12 16/34/12 14/35/12
f 9/21/7 12/36/7 10/22/7
f 12/24/8 14/37/8 13/25/8
f 14/27/9 16/38/9 15/28/9
f 16/30/10 9/39/10 11/31/10
f 13/33/11 15/40/11 11/31/11
f 12/24/12 9/39/12 16/34/12
o Cylinder.002_Cylinder.000
v 0.000000 4.000024 -50.713280
v 0.047553 0.000024 -50.678730
v 0.000000 0.000024 -50.713280
v 0.047553 4.000024 -50.678730
v 0.029389 0.000024 -50.622829
v 0.029389 4.000024 -50.622829
v -0.029389 0.000024 -50.622829
v -0.029389 4.000024 -50.622829
v -0.047553 0.000024 -50.678730
v -0.047553 4.000024 -50.678730
vt 1.000000 0.000000
vt 0.000000 1.000000
vt 0.000000 0.000000
vt 1.000000 0.000000
vt 0.000000 1.000000
vt 0.000000 0.000000
vt 1.000000 0.000000
vt 0.000000 1.000000
vt 0.000000 0.000000
vt 0.975528 0.654508
vt 0.206107 0.095492
vt 0.024472 0.654509
vt 1.000000 0.000000
vt 0.000000 1.000000
vt 0.000000 0.000000
vt 1.000000 0.000000
vt 0.000000 1.000000
vt 0.000000 0.000000
vt 0.975528 0.654508
vt 0.206107 0.095492
vt 0.500000 1.000000
vt 1.000000 1.000000
vt 1.000000 1.000000
vt 1.000000 1.000000
vt 0.500000 1.000000
vt 0.793893 0.095491
vt 1.000000 1.000000
vt 1.000000 1.000000
vt 0.024472 0.654509
vt 0.793893 0.095491
vn 0.5878 0.0000 -0.8090
vn 0.5877 0.0000 -0.8090
vn 0.9511 0.0000 0.3090
vn 0.0000 0.0000 1.0000
vn 0.0000 1.0000 0.0000
vn -0.9511 0.0000 0.3090
vn -0.5877 0.0000 -0.8090
vn -0.5878 0.0000 -0.8090
vn -0.0000 -1.0000 -0.0000
usemtl None_metal.jpg.003
s 1
f 17/41/13 18/42/13 19/43/14
f 20/44/15 21/45/15 18/46/15
f 22/47/16 23/48/16 21/49/16
f 17/50/17 24/51/17 22/52/17
f 24/53/18 25/54/18 23/55/18
f 26/56/19 19/57/20 25/58/20
f 18/59/21 23/60/21 19/61/21
f 17/41/13 20/62/13 18/42/13
f 20/44/15 22/63/15 21/45/15
f 22/47/16 24/64/16 23/48/16
f 22/52/17 20/65/17 17/50/17
f 17/50/17 26/66/17 24/51/17
f 24/53/18 26/67/18 25/54/18
f 26/56/19 17/68/19 19/57/20
f 25/69/21 19/61/21 23/60/21
f 18/59/21 21/70/21 23/60/21
o Cylinder.001_Cylinder.000
v 0.000000 4.000020 -36.389610
v 0.047553 0.000020 -36.355061
v 0.000000 0.000020 -36.389610
v 0.047553 4.000020 -36.355061
v 0.029389 0.000020 -36.299160
v 0.029389 4.000020 -36.299160
v -0.029389 0.000020 -36.299160
v -0.029389 4.000020 -36.299160
v -0.047553 0.000020 -36.355061
v -0.047553 4.000020 -36.355061
vt 1.000000 0.000000
vt 0.000000 1.000000
vt 0.000000 0.000000
vt 1.000000 0.000000
vt 0.000000 1.000000
vt 0.000000 0.000000
vt 1.000000 0.000000
vt 0.000000 1.000000
vt 0.000000 0.000000
vt 0.975528 0.654508
vt 0.206107 0.095492
vt 0.024472 0.654509
vt 1.000000 0.000000
vt 0.000000 1.000000
vt 0.000000 0.000000
vt 1.000000 0.000000
vt 0.000000 1.000000
vt 0.000000 0.000000
vt 0.975528 0.654508
vt 0.206107 0.095492
vt 0.500000 1.000000
vt 1.000000 1.000000
vt 1.000000 1.000000
vt 1.000000 1.000000
vt 0.500000 1.000000
vt 0.793893 0.095491
vt 1.000000 1.000000
vt 1.000000 1.000000
vt 0.024472 0.654509
vt 0.793893 0.095491
vn 0.5878 0.0000 -0.8090
vn 0.5877 0.0000 -0.8090
vn 0.9511 0.0000 0.3090
vn 0.0000 0.0000 1.0000
vn 0.0000 1.0000 -0.0000
vn -0.9511 0.0000 0.3090
vn -0.5877 0.0000 -0.8090
vn -0.5878 0.0000 -0.8090
vn -0.0000 -1.0000 -0.0000
usemtl None_metal.jpg.002
s 1
f 27/71/22 28/72/23 29/73/23
f 30/74/24 31/75/24 28/76/24
f 32/77/25 33/78/25 31/79/25
f 27/80/26 34/81/26 32/82/26
f 34/83/27 35/84/27 33/85/27
f 36/86/28 29/87/29 35/88/29
f 28/89/30 33/90/30 29/91/30
f 27/71/22 30/92/22 28/72/23
f 30/74/24 32/93/24 31/75/24
f 32/77/25 34/94/25 33/78/25
f 32/82/26 30/95/26 27/80/26
f 27/80/26 36/96/26 34/81/26
f 34/83/27 36/97/27 35/84/27
f 36/86/28 27/98/28 29/87/29
f 35/99/30 29/91/30 33/90/30
f 28/89/30 31/100/30 33/90/30
o Plane.000_Plane.006
v -135.000000 0.000000 135.000000
v -135.000000 0.000000 35.000000
v -120.000000 0.000000 120.000000
v -120.000000 0.000000 50.000000
v -50.000004 0.000000 50.000004
v 49.999985 0.000000 50.000004
v -50.000004 0.000000 -49.999985
v 49.999985 0.000000 -49.999985
v -35.000004 0.000000 35.000004
v 34.999992 0.000000 35.000004
v -35.000004 0.000000 -34.999992
v 34.999992 0.000000 -34.999992
v -50.000004 0.000000 135.000000
v 49.999985 0.000000 135.000000
v -35.000004 0.000000 120.000000
v 34.999992 0.000000 120.000000
vt 0.540541 0.000000
vt 0.081081 0.040541
vt 0.000000 0.000000
vt 0.459459 0.040541
vt 1.000000 0.229730
vt 0.540541 0.270270
vt 0.459460 0.229730
vt 1.000000 0.500000
vt 0.918919 0.270270
vt 0.459460 0.500000
vt 0.918919 0.459459
vt 0.540541 0.459459
vt 0.000000 0.229730
vt 0.081081 0.459459
vt 0.000000 0.500000
vt 0.081081 0.270270
vn 0.0000 -1.0000 0.0000
usemtl None
s off
f 38/101/31 39/102/31 37/103/31
f 38/101/31 40/104/31 39/102/31
f 43/105/31 45/106/31 41/107/31
f 44/108/31 47/109/31 43/105/31
f 42/110/31 48/111/31 44/108/31
f 43/105/31 47/109/31 45/106/31
f 44/108/31 48/111/31 47/109/31
f 42/110/31 46/112/31 48/111/31
f 49/113/31 52/114/31 50/115/31
f 49/113/31 51/116/31 52/114/31
f 42/110/31 52/114/31 46/112/31
f 42/110/31 50/115/31 52/114/31
f 45/106/31 40/104/31 38/101/31
f 39/102/31 49/113/31 37/103/31
f 45/106/31 41/107/31 40/104/31
f 39/102/31 51/116/31 49/113/31
