# Blender v2.80 (sub 75) OBJ File: 'track3.blend'
# www.blender.org
mtllib track3_road.mtl
o Circle.002
v -122.601051 0.000017 -29.305981
v -138.595673 0.000018 -35.576252
v -130.971497 0.000021 -41.833241
v -116.507484 0.000017 -32.563057
v -122.273155 0.000024 -46.482609
v -112.834892 0.000024 -49.345676
v -0.000001 0.000020 -35.245998
v 0.000000 0.000024 -50.312416
v 6.876099 0.000020 -34.568768
v 9.815391 0.000024 -49.345692
v 13.488012 0.000017 -32.563080
v 19.253660 0.000024 -46.482639
v 19.581585 0.000017 -29.306009
v 27.952024 0.000021 -41.833282
v 24.922653 0.000014 -24.922718
v 35.576202 0.000018 -35.576298
v 29.305954 0.000011 -19.581667
v 41.833214 0.000015 -27.952133
v 32.563042 0.000008 -13.488099
v 46.482590 0.000009 -19.253782
v 49.345669 0.000006 -9.815517
v 35.245998 0.000000 -0.000036
v 50.312416 0.000000 -0.000048
v 49.345688 -0.000006 9.815422
v 32.563068 -0.000008 13.488030
v 46.482628 -0.000009 19.253691
v 29.305992 -0.000011 19.581604
v 41.833267 -0.000015 27.952051
v 24.922701 -0.000014 24.922667
v 35.576275 -0.000018 35.576225
v 27.952105 -0.000021 41.833225
v 13.488075 -0.000017 32.563046
v 19.253752 -0.000024 46.482601
v 6.876166 -0.000020 34.568752
v 9.815487 -0.000024 49.345676
v 0.000011 -0.000020 35.245995
v 0.000016 -0.000024 50.312416
v -112.834877 -0.000024 49.345680
v -116.507477 -0.000017 32.563057
v -122.273140 -0.000024 46.482616
v -130.971497 -0.000021 41.833244
v -138.595673 -0.000018 35.576252
v -122.601051 -0.000017 29.305975
v -132.325409 -0.000011 19.581625
v -144.852661 -0.000015 27.952078
v -135.582489 -0.000008 13.488052
v -149.502045 -0.000009 19.253719
v -137.588181 -0.000003 6.876147
v -152.365112 -0.000006 9.815459
v -138.265411 0.000000 -0.000005
v -153.331848 0.000000 -0.000004
v -152.365112 0.000006 -9.815468
v -149.502045 0.000009 -19.253727
v -137.588181 0.000003 -6.876157
v -132.325409 0.000011 -19.581631
v -144.852661 0.000015 -27.952078
v -127.942108 0.000014 -24.922688
v -109.895576 0.000020 -34.568760
v 34.568748 0.000003 -6.876193
v 34.568764 -0.000003 6.876121
v 19.581644 -0.000017 29.305964
v -109.895569 -0.000020 34.568756
v -127.942108 -0.000014 24.922684
v -135.582489 0.000008 -13.488062
vt 1.000000 0.000000
vt 0.000000 1.000000
vt 0.000000 0.000000
vt 1.000000 0.000000
vt 0.000000 1.000000
vt 0.000000 0.000000
vt 0.000000 0.000000
vt 1.000000 1.000000
vt 0.000000 1.000000
vt 1.000000 0.000000
vt 0.000000 1.000000
vt 0.000000 0.000000
vt 1.000000 0.000000
vt 0.000000 1.000000
vt 0.000000 0.000000
vt 1.000000 0.000000
vt 0.000000 1.000000
vt 0.000000 0.000000
vt 1.000000 0.000000
vt 0.000000 1.000000
vt 0.000000 0.000000
vt 1.000000 0.000000
vt 0.000000 1.000000
vt 0.000000 0.000000
vt 1.000000 0.000000
vt 0.000000 1.000000
vt 0.000000 0.000000
vt 1.000000 0.000000
vt 0.000000 1.000000
vt 0.000000 0.000000
vt 0.000000 0.000000
vt 1.000000 1.000000
vt 0.000000 1.000000
vt 1.000000 0.000000
vt 0.000000 1.000000
vt 0.000000 0.000000
vt 0.000000 0.000000
vt 1.000000 1.000000
vt 0.000000 1.000000
vt 1.000000 0.000000
vt 0.000000 1.000000
vt 0.000000 0.000000
vt 1.000000 0.000000
vt 0.000000 1.000000
vt 0.000000 0.000000
vt 1.000000 0.000000
vt 0.000000 1.000000
vt 0.000000 0.000000
vt 0.000000 0.000000
vt 1.000000 1.000000
vt 0.000000 1.000000
vt 1.000000 0.000000
vt 0.000000 1.000000
vt 0.000000 0.000000
vt 1.000000 0.000000
vt 0.000000 1.000000
vt 0.000000 0.000000
vt 1.000000 0.000000
vt 0.000000 1.000000
vt 0.000000 0.000000
vt 0.000000 0.000000
vt 1.000000 1.000000
vt 0.000000 1.000000
vt 1.000000 0.000000
vt 0.000000 1.000000
vt 0.000000 0.000000
vt 0.000000 0.000000
vt 1.000000 1.000000
vt 0.000000 1.000000
vt 0.000000 0.000000
vt 1.000000 1.000000
vt 0.000000 1.000000
vt 1.000000 0.000000
vt 0.000000 1.000000
vt 0.000000 0.000000
vt 1.000000 0.000000
vt 0.000000 1.000000
vt 0.000000 0.000000
vt 1.000000 0.000000
vt 0.000000 1.000000
vt 0.000000 0.000000
vt 1.000000 0.000000
vt 0.000000 1.000000
vt 0.000000 0.000000
vt 0.000000 0.000000
vt 1.000000 1.000000
vt 0.000000 1.000000
vt 0.000000 0.000000
vt 1.000000 1.000000
vt 0.000000 1.000000
vt 1.000000 0.000000
vt 0.000000 1.000000
vt 0.000000 0.000000
vt 0.000000 0.000000
vt 1.000000 1.000000
vt 0.000000 1.000000
vt 1.000000 1.000000
vt 1.000000 1.000000
vt 1.000000 0.000000
vt 1.000000 1.000000
vt 1.000000 1.000000
vt 1.000000 1.000000
vt 1.000000 1.000000
vt 1.000000 1.000000
vt 1.000000 1.000000
vt 1.000000 1.000000
vt 1.000000 0.000000
vt 1.000000 1.000000
vt 1.000000 0.000000
vt 1.000000 1.000000
vt 1.000000 1.000000
vt 1.000000 1.000000
vt 1.000000 0.000000
vt 1.000000 1.000000
vt 1.000000 1.000000
vt 1.000000 1.000000
vt 1.000000 0.000000
vt 1.000000 1.000000
vt 1.000000 0.000000
vt 1.000000 0.000000
vt 1.000000 1.000000
vt 1.000000 1.000000
vt 1.000000 1.000000
vt 1.000000 1.000000
vt 1.000000 0.000000
vt 1.000000 0.000000
vt 1.000000 1.000000
vt 1.000000 0.000000
vn 0.0000 -1.0000 -0.0000
usemtl None_striped-angled-concrete.jpg.002
s 1
f 1/1/1 2/2/1 3/3/1
f 4/4/1 3/5/1 5/6/1
f 6/7/1 4/8/1 5/9/1
f 7/10/1 6/11/1 8/12/1
f 9/13/1 8/14/1 10/15/1
f 11/16/1 10/17/1 12/18/1
f 13/19/1 12/20/1 14/21/1
f 15/22/1 14/23/1 16/24/1
f 17/25/1 16/26/1 18/27/1
f 19/28/1 18/29/1 20/30/1
f 21/31/1 19/32/1 20/33/1
f 22/34/1 21/35/1 23/36/1
f 24/37/1 22/38/1 23/39/1
f 25/40/1 24/41/1 26/42/1
f 27/43/1 26/44/1 28/45/1
f 29/46/1 28/47/1 30/48/1
f 31/49/1 29/50/1 30/51/1
f 32/52/1 31/53/1 33/54/1
f 34/55/1 33/56/1 35/57/1
f 36/58/1 35/59/1 37/60/1
f 38/61/1 36/62/1 37/63/1
f 39/64/1 38/65/1 40/66/1
f 41/67/1 39/68/1 40/69/1
f 42/70/1 43/71/1 41/72/1
f 44/73/1 42/74/1 45/75/1
f 46/76/1 45/77/1 47/78/1
f 48/79/1 47/80/1 49/81/1
f 50/82/1 49/83/1 51/84/1
f 52/85/1 50/86/1 51/87/1
f 53/88/1 54/89/1 52/90/1
f 55/91/1 53/92/1 56/93/1
f 2/94/1 55/95/1 56/96/1
f 1/1/1 57/97/1 2/2/1
f 4/4/1 1/98/1 3/5/1
f 6/7/1 58/99/1 4/8/1
f 7/10/1 58/100/1 6/11/1
f 9/13/1 7/101/1 8/14/1
f 11/16/1 9/102/1 10/17/1
f 13/19/1 11/103/1 12/20/1
f 15/22/1 13/104/1 14/23/1
f 17/25/1 15/105/1 16/26/1
f 19/28/1 17/106/1 18/29/1
f 21/31/1 59/107/1 19/32/1
f 22/34/1 59/108/1 21/35/1
f 24/37/1 60/109/1 22/38/1
f 25/40/1 60/110/1 24/41/1
f 27/43/1 25/111/1 26/44/1
f 29/46/1 27/112/1 28/47/1
f 31/49/1 61/113/1 29/50/1
f 32/52/1 61/114/1 31/53/1
f 34/55/1 32/115/1 33/56/1
f 36/58/1 34/116/1 35/59/1
f 38/61/1 62/117/1 36/62/1
f 39/64/1 62/118/1 38/65/1
f 41/67/1 43/119/1 39/68/1
f 42/70/1 63/120/1 43/71/1
f 44/73/1 63/121/1 42/74/1
f 46/76/1 44/122/1 45/77/1
f 48/79/1 46/123/1 47/80/1
f 50/82/1 48/124/1 49/83/1
f 52/85/1 54/125/1 50/86/1
f 53/88/1 64/126/1 54/89/1
f 55/91/1 64/127/1 53/92/1
f 2/94/1 57/128/1 55/95/1
o Cube_Cube.006
v 0.005000 4.000021 -43.372395
v 0.005000 3.000024 -50.711403
v 0.005000 4.000024 -50.711403
v 0.005000 3.000021 -43.372395
v -0.005000 3.000024 -50.711403
v -0.005000 3.000021 -43.372395
v -0.005000 4.000024 -50.711403
v -0.005000 4.000021 -43.372395
vt 1.000000 0.000000
vt 0.000000 1.000000
vt 0.000000 0.000000
vt 1.000000 0.000000
vt 0.000000 1.000000
vt 0.000000 0.000000
vt 1.000000 0.000000
vt 0.000000 1.000000
vt 0.000000 0.000000
vt 1.000000 0.000000
vt 0.000000 1.000000
vt 0.000000 0.000000
vt 1.000000 0.000000
vt 0.000000 1.000000
vt 0.000000 0.000000
vt 1.000000 1.000000
vt 1.000000 1.000000
vt 1.000000 1.000000
vt 1.000000 1.000000
vt 1.000000 1.000000
vn 1.0000 0.0000 0.0000
vn 0.0000 -1.0000 -0.0000
vn -1.0000 0.0000 0.0000
vn 0.0000 1.0000 0.0000
vn 0.0000 0.0000 -1.0000
vn 0.0000 0.0000 1.0000
usemtl None.006
s 1
f 65/129/2 66/130/2 67/131/2
f 68/132/3 69/133/3 66/134/3
f 70/135/4 71/136/4 69/137/4
f 72/138/5 67/139/5 71/140/5
f 69/141/6 67/139/6 66/134/6
f 68/132/7 72/142/7 70/143/7
f 65/129/2 68/144/2 66/130/2
f 68/132/3 70/145/3 69/133/3
f 70/135/4 72/146/4 71/136/4
f 72/138/5 65/147/5 67/139/5
f 69/141/6 71/148/6 67/139/6
f 68/132/7 65/147/7 72/142/7
o Cube_Cube.007
v 0.005000 4.000020 -36.341255
v 0.005000 3.000023 -43.680260
v 0.005000 4.000023 -43.680260
v 0.005000 3.000020 -36.341255
v -0.005000 3.000023 -43.680260
v -0.005000 3.000020 -36.341255
v -0.005000 4.000023 -43.680260
v -0.005000 4.000020 -36.341255
vt 1.000000 0.000000
vt 0.000000 1.000000
vt 0.000000 0.000000
vt 1.000000 0.000000
vt 0.000000 1.000000
vt 0.000000 0.000000
vt 1.000000 0.000000
vt 0.000000 1.000000
vt 0.000000 0.000000
vt 1.000000 0.000000
vt 0.000000 1.000000
vt 0.000000 0.000000
vt 1.000000 0.000000
vt 0.000000 1.000000
vt 0.000000 0.000000
vt 1.000000 1.000000
vt 1.000000 1.000000
vt 1.000000 1.000000
vt 1.000000 1.000000
vt 1.000000 1.000000
vn 1.0000 0.0000 0.0000
vn 0.0000 -1.0000 -0.0000
vn -1.0000 0.0000 0.0000
vn 0.0000 1.0000 0.0000
vn 0.0000 0.0000 -1.0000
vn 0.0000 0.0000 1.0000
usemtl None.007
s 1
f 73/149/8 74/150/8 75/151/8
f 76/152/9 77/153/9 74/154/9
f 78/155/10 79/156/10 77/157/10
f 80/158/11 75/159/11 79/160/11
f 77/161/12 75/159/12 74/154/12
f 76/152/13 80/162/13 78/163/13
f 73/149/8 76/164/8 74/150/8
f 76/152/9 78/165/9 77/153/9
f 78/155/10 80/166/10 79/156/10
f 80/158/11 73/167/11 75/159/11
f 77/161/12 79/168/12 75/159/12
f 76/152/13 73/167/13 80/162/13
o Cylinder.001_Cylinder.002
v 0.000000 4.000020 -36.389610
v 0.047553 0.000020 -36.355061
v 0.000000 0.000020 -36.389610
v 0.047553 4.000020 -36.355061
v 0.029389 0.000020 -36.299160
v 0.029389 4.000020 -36.299160
v -0.029389 0.000020 -36.299160
v -0.029389 4.000020 -36.299160
v -0.047553 0.000020 -36.355061
v -0.047553 4.000020 -36.355061
vt 1.000000 0.000000
vt 0.000000 1.000000
vt 0.000000 0.000000
vt 1.000000 0.000000
vt 0.000000 1.000000
vt 0.000000 0.000000
vt 1.000000 0.000000
vt 0.000000 1.000000
vt 0.000000 0.000000
vt 0.975528 0.654508
vt 0.206107 0.095492
vt 0.024472 0.654509
vt 1.000000 0.000000
vt 0.000000 1.000000
vt 0.000000 0.000000
vt 1.000000 0.000000
vt 0.000000 1.000000
vt 0.000000 0.000000
vt 0.975528 0.654508
vt 0.206107 0.095492
vt 0.500000 1.000000
vt 1.000000 1.000000
vt 1.000000 1.000000
vt 1.000000 1.000000
vt 0.500000 1.000000
vt 0.793893 0.095491
vt 1.000000 1.000000
vt 1.000000 1.000000
vt 0.024472 0.654509
vt 0.793893 0.095491
vn 0.5878 0.0000 -0.8090
vn 0.5877 0.0000 -0.8090
vn 0.9511 0.0000 0.3090
vn 0.0000 0.0000 1.0000
vn 0.0000 1.0000 -0.0000
vn -0.9511 0.0000 0.3090
vn -0.5877 0.0000 -0.8090
vn -0.5878 0.0000 -0.8090
vn -0.0000 -1.0000 -0.0000
usemtl None_metal.jpg.007
s 1
f 81/169/14 82/170/15 83/171/15
f 84/172/16 85/173/16 82/174/16
f 86/175/17 87/176/17 85/177/17
f 81/178/18 88/179/18 86/180/18
f 88/181/19 89/182/19 87/183/19
f 90/184/20 83/185/21 89/186/21
f 82/187/22 87/188/22 83/189/22
f 81/169/14 84/190/14 82/170/15
f 84/172/16 86/191/16 85/173/16
f 86/175/17 88/192/17 87/176/17
f 86/180/18 84/193/18 81/178/18
f 81/178/18 90/194/18 88/179/18
f 88/181/19 90/195/19 89/182/19
f 90/184/20 81/196/20 83/185/21
f 89/197/22 83/189/22 87/188/22
f 82/187/22 85/198/22 87/188/22
o Cylinder.002_Cylinder.002
v 0.000000 4.000024 -50.713280
v 0.047553 0.000024 -50.678730
v 0.000000 0.000024 -50.713280
v 0.047553 4.000024 -50.678730
v 0.029389 0.000024 -50.622829
v 0.029389 4.000024 -50.622829
v -0.029389 0.000024 -50.622829
v -0.029389 4.000024 -50.622829
v -0.047553 0.000024 -50.678730
v -0.047553 4.000024 -50.678730
vt 1.000000 0.000000
vt 0.000000 1.000000
vt 0.000000 0.000000
vt 1.000000 0.000000
vt 0.000000 1.000000
vt 0.000000 0.000000
vt 1.000000 0.000000
vt 0.000000 1.000000
vt 0.000000 0.000000
vt 0.975528 0.654508
vt 0.206107 0.095492
vt 0.024472 0.654509
vt 1.000000 0.000000
vt 0.000000 1.000000
vt 0.000000 0.000000
vt 1.000000 0.000000
vt 0.000000 1.000000
vt 0.000000 0.000000
vt 0.975528 0.654508
vt 0.206107 0.095492
vt 0.500000 1.000000
vt 1.000000 1.000000
vt 1.000000 1.000000
vt 1.000000 1.000000
vt 0.500000 1.000000
vt 0.793893 0.095491
vt 1.000000 1.000000
vt 1.000000 1.000000
vt 0.024472 0.654509
vt 0.793893 0.095491
vn 0.5878 0.0000 -0.8090
vn 0.5877 0.0000 -0.8090
vn 0.9511 0.0000 0.3090
vn 0.0000 0.0000 1.0000
vn 0.0000 1.0000 0.0000
vn -0.9511 0.0000 0.3090
vn -0.5877 0.0000 -0.8090
vn -0.5878 0.0000 -0.8090
vn -0.0000 -1.0000 -0.0000
usemtl None_metal.jpg.006
s 1
f 91/199/23 92/200/23 93/201/24
f 94/202/25 95/203/25 92/204/25
f 96/205/26 97/206/26 95/207/26
f 91/208/27 98/209/27 96/210/27
f 98/211/28 99/212/28 97/213/28
f 100/214/29 93/215/30 99/216/30
f 92/217/31 97/218/31 93/219/31
f 91/199/23 94/220/23 92/200/23
f 94/202/25 96/221/25 95/203/25
f 96/205/26 98/222/26 97/206/26
f 96/210/27 94/223/27 91/208/27
f 91/208/27 100/224/27 98/209/27
f 98/211/28 100/225/28 99/212/28
f 100/214/29 91/226/29 93/215/30
f 99/227/31 93/219/31 97/218/31
f 92/217/31 95/228/31 97/218/31
