# Blender v2.79 (sub 0) OBJ File: ''
# www.blender.org
mtllib track_only.mtl
o Cube_Cube.000
v 0.005000 4.000020 -36.341255
v 0.005000 3.000023 -43.680260
v 0.005000 4.000023 -43.680260
v 0.005000 3.000020 -36.341255
v -0.005000 3.000023 -43.680260
v -0.005000 3.000020 -36.341255
v -0.005000 4.000023 -43.680260
v -0.005000 4.000020 -36.341255
vt 1.000000 0.000000
vt 0.000000 1.000000
vt 0.000000 0.000000
vt 1.000000 0.000000
vt 0.000000 1.000000
vt 0.000000 0.000000
vt 1.000000 0.000000
vt 0.000000 1.000000
vt 0.000000 0.000000
vt 1.000000 0.000000
vt 0.000000 1.000000
vt 0.000000 0.000000
vt 1.000000 0.000000
vt 0.000000 1.000000
vt 0.000000 0.000000
vt 1.000000 1.000000
vt 1.000000 1.000000
vt 1.000000 1.000000
vt 1.000000 1.000000
vt 1.000000 1.000000
vn 1.0000 0.0000 0.0000
vn 0.0000 -1.0000 -0.0000
vn -1.0000 0.0000 0.0000
vn 0.0000 1.0000 0.0000
vn 0.0000 0.0000 -1.0000
vn 0.0000 0.0000 1.0000
usemtl None.001
s 1
f 1/1/1 2/2/1 3/3/1
f 4/4/2 5/5/2 2/6/2
f 6/7/3 7/8/3 5/9/3
f 8/10/4 3/11/4 7/12/4
f 5/13/5 3/11/5 2/6/5
f 4/4/6 8/14/6 6/15/6
f 1/1/1 4/16/1 2/2/1
f 4/4/2 6/17/2 5/5/2
f 6/7/3 8/18/3 7/8/3
f 8/10/4 1/19/4 3/11/4
f 5/13/5 7/20/5 3/11/5
f 4/4/6 1/19/6 8/14/6
o Cube_Cube.001
v 0.005000 4.000021 -43.372395
v 0.005000 3.000024 -50.711403
v 0.005000 4.000024 -50.711403
v 0.005000 3.000021 -43.372395
v -0.005000 3.000024 -50.711403
v -0.005000 3.000021 -43.372395
v -0.005000 4.000024 -50.711403
v -0.005000 4.000021 -43.372395
vt 1.000000 0.000000
vt 0.000000 1.000000
vt 0.000000 0.000000
vt 1.000000 0.000000
vt 0.000000 1.000000
vt 0.000000 0.000000
vt 1.000000 0.000000
vt 0.000000 1.000000
vt 0.000000 0.000000
vt 1.000000 0.000000
vt 0.000000 1.000000
vt 0.000000 0.000000
vt 1.000000 0.000000
vt 0.000000 1.000000
vt 0.000000 0.000000
vt 1.000000 1.000000
vt 1.000000 1.000000
vt 1.000000 1.000000
vt 1.000000 1.000000
vt 1.000000 1.000000
vn 1.0000 0.0000 0.0000
vn 0.0000 -1.0000 -0.0000
vn -1.0000 0.0000 0.0000
vn 0.0000 1.0000 0.0000
vn 0.0000 0.0000 -1.0000
vn 0.0000 0.0000 1.0000
usemtl None
s 1
f 9/21/7 10/22/7 11/23/7
f 12/24/8 13/25/8 10/26/8
f 14/27/9 15/28/9 13/29/9
f 16/30/10 11/31/10 15/32/10
f 13/33/11 11/31/11 10/26/11
f 12/24/12 16/34/12 14/35/12
f 9/21/7 12/36/7 10/22/7
f 12/24/8 14/37/8 13/25/8
f 14/27/9 16/38/9 15/28/9
f 16/30/10 9/39/10 11/31/10
f 13/33/11 15/40/11 11/31/11
f 12/24/12 9/39/12 16/34/12
o Circle.001
v -19.581631 0.000017 55.694019
v -35.576252 0.000018 49.423748
v -27.952082 0.000021 43.166759
v 19.581585 0.000017 55.693993
v 27.952024 0.000021 43.166718
v 24.922653 0.000014 60.077282
v 35.576202 0.000018 49.423702
v 29.305954 0.000011 65.418335
v 41.833214 0.000015 57.047867
v 32.563042 0.000008 71.511902
v 46.482590 0.000009 65.746216
v 49.345669 0.000006 75.184479
v 35.245998 0.000000 84.999962
v 50.312416 0.000000 84.999954
v 49.345688 -0.000006 94.815422
v 32.563068 -0.000008 98.488029
v 46.482628 -0.000009 104.253693
v 29.305992 -0.000011 104.581604
v 41.833267 -0.000015 112.952049
v 24.922701 -0.000014 109.922668
v 35.576275 -0.000018 120.576225
v 27.952105 -0.000021 126.833221
v 13.488075 -0.000017 117.563049
v 19.253752 -0.000024 131.482605
v 6.876166 -0.000020 119.568756
v 9.815487 -0.000024 134.345673
v 0.000011 -0.000020 120.245995
v 0.000016 -0.000024 135.312408
v -9.815454 -0.000024 134.345673
v -13.488054 -0.000017 117.563057
v -19.253719 -0.000024 131.482620
v -27.952078 -0.000021 126.833244
v -35.576252 -0.000018 120.576248
v -19.581629 -0.000017 114.305977
v -29.305981 -0.000011 104.581627
v -41.833244 -0.000015 112.952080
v -32.563057 -0.000008 98.488052
v -46.482613 -0.000009 104.253723
v -34.568756 -0.000003 91.876144
v -49.345680 -0.000006 94.815460
v -35.245998 0.000000 84.999992
v -50.312416 0.000000 84.999992
v -49.345676 0.000006 75.184532
v -46.482609 0.000009 65.746277
v -34.568756 0.000003 78.123840
v -29.305981 0.000011 65.418365
v -41.833244 0.000015 57.047920
v -24.922686 0.000014 60.077312
v 34.568748 0.000003 78.123810
v 34.568764 -0.000003 91.876122
v 19.581644 -0.000017 114.305962
v -6.876146 -0.000020 119.568756
v -24.922686 -0.000014 109.922684
v -32.563057 0.000008 71.511940
v -19.581631 0.000017 -29.305984
v -35.576252 0.000018 -35.576248
v -27.952082 0.000021 -41.833237
v -13.488061 0.000017 -32.563057
v -19.253729 0.000024 -46.482605
v -9.815466 0.000024 -49.345673
v -0.000001 0.000020 -35.246002
v 0.000000 0.000024 -50.312408
v 6.876099 0.000020 -34.568771
v 9.815391 0.000024 -49.345688
v 13.488012 0.000017 -32.563080
v 19.253660 0.000024 -46.482635
v 19.581585 0.000017 -29.306007
v 27.952024 0.000021 -41.833282
v 24.922653 0.000014 -24.922714
v 35.576202 0.000018 -35.576294
v 29.305954 0.000011 -19.581665
v 41.833214 0.000015 -27.952133
v 32.563042 0.000008 -13.488098
v 46.482590 0.000009 -19.253784
v 49.345669 0.000006 -9.815521
v 35.245998 0.000000 -0.000038
v 50.312416 0.000000 -0.000046
v 49.345688 -0.000006 9.815422
v 32.563068 -0.000008 13.488029
v 46.482628 -0.000009 19.253693
v 29.305992 -0.000011 19.581604
v 41.833267 -0.000015 27.952049
v 24.922701 -0.000014 24.922668
v 35.576275 -0.000018 35.576225
v 27.952105 -0.000021 41.833225
v -27.952078 -0.000021 41.833244
v -35.576252 -0.000018 35.576252
v -19.581629 -0.000017 29.305977
v -29.305981 -0.000011 19.581627
v -41.833244 -0.000015 27.952080
v -32.563057 -0.000008 13.488052
v -46.482613 -0.000009 19.253723
v -34.568756 -0.000003 6.876144
v -49.345680 -0.000006 9.815460
v -35.245998 0.000000 -0.000008
v -50.312416 0.000000 -0.000008
v -49.345676 0.000006 -9.815468
v -46.482609 0.000009 -19.253723
v -34.568756 0.000003 -6.876160
v -29.305981 0.000011 -19.581635
v -41.833244 0.000015 -27.952080
v -24.922686 0.000014 -24.922684
v -6.876154 0.000020 -34.568756
v 34.568748 0.000003 -6.876190
v 34.568764 -0.000003 6.876122
v 19.581644 -0.000017 29.305962
v -24.922686 -0.000014 24.922684
v -32.563057 0.000008 -13.488060
vt 1.000000 0.000000
vt 0.000000 1.000000
vt 0.000000 0.000000
vt 1.000000 0.000000
vt 0.000000 1.000000
vt 0.000000 0.000000
vt 1.000000 0.000000
vt 0.000000 1.000000
vt 0.000000 0.000000
vt 1.000000 0.000000
vt 0.000000 1.000000
vt 0.000000 0.000000
vt 0.000000 0.000000
vt 1.000000 1.000000
vt 0.000000 1.000000
vt 1.000000 0.000000
vt 0.000000 1.000000
vt 0.000000 0.000000
vt 0.000000 0.000000
vt 1.000000 1.000000
vt 0.000000 1.000000
vt 1.000000 0.000000
vt 0.000000 1.000000
vt 0.000000 0.000000
vt 1.000000 0.000000
vt 0.000000 1.000000
vt 0.000000 0.000000
vt 1.000000 0.000000
vt 0.000000 1.000000
vt 0.000000 0.000000
vt 0.000000 0.000000
vt 1.000000 1.000000
vt 0.000000 1.000000
vt 1.000000 0.000000
vt 0.000000 1.000000
vt 0.000000 0.000000
vt 1.000000 0.000000
vt 0.000000 1.000000
vt 0.000000 0.000000
vt 1.000000 0.000000
vt 0.000000 1.000000
vt 0.000000 0.000000
vt 0.000000 0.000000
vt 1.000000 1.000000
vt 0.000000 1.000000
vt 1.000000 0.000000
vt 0.000000 1.000000
vt 0.000000 0.000000
vt 0.000000 0.000000
vt 1.000000 1.000000
vt 0.000000 1.000000
vt 0.000000 0.000000
vt 1.000000 1.000000
vt 0.000000 1.000000
vt 1.000000 0.000000
vt 0.000000 1.000000
vt 0.000000 0.000000
vt 1.000000 0.000000
vt 0.000000 1.000000
vt 0.000000 0.000000
vt 1.000000 0.000000
vt 0.000000 1.000000
vt 0.000000 0.000000
vt 1.000000 0.000000
vt 0.000000 1.000000
vt 0.000000 0.000000
vt 0.000000 0.000000
vt 1.000000 1.000000
vt 0.000000 1.000000
vt 0.000000 0.000000
vt 1.000000 1.000000
vt 0.000000 1.000000
vt 1.000000 0.000000
vt 0.000000 1.000000
vt 0.000000 0.000000
vt 0.000000 0.000000
vt 1.000000 1.000000
vt 0.000000 1.000000
vt 1.000000 1.000000
vt 1.000000 1.000000
vt 1.000000 1.000000
vt 1.000000 1.000000
vt 1.000000 0.000000
vt 1.000000 1.000000
vt 1.000000 0.000000
vt 1.000000 1.000000
vt 1.000000 1.000000
vt 1.000000 1.000000
vt 1.000000 0.000000
vt 1.000000 1.000000
vt 1.000000 1.000000
vt 1.000000 1.000000
vt 1.000000 0.000000
vt 1.000000 1.000000
vt 1.000000 0.000000
vt 1.000000 0.000000
vt 1.000000 1.000000
vt 1.000000 1.000000
vt 1.000000 1.000000
vt 1.000000 1.000000
vt 1.000000 0.000000
vt 1.000000 0.000000
vt 1.000000 1.000000
vt 1.000000 0.000000
vt 1.000000 0.000000
vt 0.000000 0.000000
vt 0.000000 1.000000
vt 1.000000 1.000000
vt 1.000000 0.000000
vt 0.000000 1.000000
vt 0.000000 0.000000
vt 1.000000 0.000000
vt 0.000000 1.000000
vt 0.000000 0.000000
vt 0.000000 0.000000
vt 1.000000 1.000000
vt 0.000000 1.000000
vt 1.000000 0.000000
vt 0.000000 1.000000
vt 0.000000 0.000000
vt 1.000000 0.000000
vt 0.000000 1.000000
vt 0.000000 0.000000
vt 1.000000 0.000000
vt 0.000000 1.000000
vt 0.000000 0.000000
vt 1.000000 0.000000
vt 0.000000 1.000000
vt 0.000000 0.000000
vt 1.000000 0.000000
vt 0.000000 1.000000
vt 0.000000 0.000000
vt 1.000000 0.000000
vt 0.000000 1.000000
vt 0.000000 0.000000
vt 1.000000 0.000000
vt 0.000000 1.000000
vt 0.000000 0.000000
vt 0.000000 0.000000
vt 1.000000 1.000000
vt 0.000000 1.000000
vt 1.000000 0.000000
vt 0.000000 1.000000
vt 0.000000 0.000000
vt 0.000000 0.000000
vt 1.000000 1.000000
vt 0.000000 1.000000
vt 1.000000 0.000000
vt 0.000000 1.000000
vt 0.000000 0.000000
vt 1.000000 0.000000
vt 0.000000 1.000000
vt 0.000000 0.000000
vt 1.000000 0.000000
vt 0.000000 1.000000
vt 0.000000 0.000000
vt 1.000000 1.000000
vt 0.000000 1.000000
vt 0.000000 0.000000
vt 1.000000 0.000000
vt 0.000000 1.000000
vt 0.000000 0.000000
vt 1.000000 0.000000
vt 0.000000 1.000000
vt 0.000000 0.000000
vt 1.000000 0.000000
vt 0.000000 1.000000
vt 0.000000 0.000000
vt 1.000000 0.000000
vt 0.000000 1.000000
vt 0.000000 0.000000
vt 0.000000 0.000000
vt 1.000000 1.000000
vt 0.000000 1.000000
vt 0.000000 0.000000
vt 1.000000 1.000000
vt 0.000000 1.000000
vt 1.000000 0.000000
vt 0.000000 1.000000
vt 0.000000 0.000000
vt 0.000000 0.000000
vt 1.000000 1.000000
vt 0.000000 1.000000
vt 1.000000 1.000000
vt 1.000000 1.000000
vt 1.000000 0.000000
vt 1.000000 1.000000
vt 1.000000 1.000000
vt 1.000000 1.000000
vt 1.000000 1.000000
vt 1.000000 1.000000
vt 1.000000 1.000000
vt 1.000000 1.000000
vt 1.000000 0.000000
vt 1.000000 1.000000
vt 1.000000 0.000000
vt 1.000000 1.000000
vt 1.000000 1.000000
vt 1.000000 1.000000
vt 1.000000 0.000000
vt 1.000000 1.000000
vt 1.000000 1.000000
vt 1.000000 1.000000
vt 1.000000 1.000000
vt 1.000000 0.000000
vt 1.000000 0.000000
vt 1.000000 1.000000
vt 1.000000 0.000000
vn -0.0000 -1.0000 -0.0000
usemtl None_striped-angled-concrete.jpg
s 1
f 17/41/13 18/42/13 19/43/13
f 22/44/13 21/45/13 23/46/13
f 24/47/13 23/48/13 25/49/13
f 26/50/13 25/51/13 27/52/13
f 28/53/13 26/54/13 27/55/13
f 29/56/13 28/57/13 30/58/13
f 31/59/13 29/60/13 30/61/13
f 32/62/13 31/63/13 33/64/13
f 34/65/13 33/66/13 35/67/13
f 36/68/13 35/69/13 37/70/13
f 38/71/13 36/72/13 37/73/13
f 39/74/13 38/75/13 40/76/13
f 41/77/13 40/78/13 42/79/13
f 43/80/13 42/81/13 44/82/13
f 45/83/13 43/84/13 44/85/13
f 46/86/13 45/87/13 47/88/13
f 48/89/13 46/90/13 47/91/13
f 49/92/13 50/93/13 48/94/13
f 51/95/13 49/96/13 52/97/13
f 53/98/13 52/99/13 54/100/13
f 55/101/13 54/102/13 56/103/13
f 57/104/13 56/105/13 58/106/13
f 59/107/13 57/108/13 58/109/13
f 60/110/13 61/111/13 59/112/13
f 62/113/13 60/114/13 63/115/13
f 18/116/13 62/117/13 63/118/13
f 17/41/13 64/119/13 18/42/13
f 22/44/13 20/120/13 21/45/13
f 24/47/13 22/121/13 23/48/13
f 26/50/13 24/122/13 25/51/13
f 28/53/13 65/123/13 26/54/13
f 29/56/13 65/124/13 28/57/13
f 31/59/13 66/125/13 29/60/13
f 32/62/13 66/126/13 31/63/13
f 34/65/13 32/127/13 33/66/13
f 36/68/13 34/128/13 35/69/13
f 38/71/13 67/129/13 36/72/13
f 39/74/13 67/130/13 38/75/13
f 41/77/13 39/131/13 40/78/13
f 43/80/13 41/132/13 42/81/13
f 45/83/13 68/133/13 43/84/13
f 46/86/13 68/134/13 45/87/13
f 48/89/13 50/135/13 46/90/13
f 49/92/13 69/136/13 50/93/13
f 51/95/13 69/137/13 49/96/13
f 53/98/13 51/138/13 52/99/13
f 55/101/13 53/139/13 54/102/13
f 57/104/13 55/140/13 56/105/13
f 59/107/13 61/141/13 57/108/13
f 60/110/13 70/142/13 61/111/13
f 62/113/13 70/143/13 60/114/13
f 18/116/13 64/144/13 62/117/13
f 122/145/13 101/146/13 17/41/13
f 20/120/13 102/147/13 104/148/13
f 20/120/13 104/148/13 21/45/13
f 122/145/13 17/41/13 19/43/13
usemtl None_striped-angled-concrete.jpg.001
f 71/149/13 72/150/13 73/151/13
f 74/152/13 73/153/13 75/154/13
f 76/155/13 74/156/13 75/157/13
f 77/158/13 76/159/13 78/160/13
f 79/161/13 78/162/13 80/163/13
f 81/164/13 80/165/13 82/166/13
f 83/167/13 82/168/13 84/169/13
f 85/170/13 84/171/13 86/172/13
f 87/173/13 86/174/13 88/175/13
f 89/176/13 88/177/13 90/178/13
f 91/179/13 89/180/13 90/181/13
f 92/182/13 91/183/13 93/184/13
f 94/185/13 92/186/13 93/187/13
f 95/188/13 94/189/13 96/190/13
f 97/191/13 96/192/13 98/193/13
f 99/194/13 98/195/13 100/196/13
f 101/146/13 99/197/13 100/198/13
f 103/199/13 104/148/13 102/147/13
f 105/200/13 103/201/13 106/202/13
f 107/203/13 106/204/13 108/205/13
f 109/206/13 108/207/13 110/208/13
f 111/209/13 110/210/13 112/211/13
f 113/212/13 111/213/13 112/214/13
f 114/215/13 115/216/13 113/217/13
f 116/218/13 114/219/13 117/220/13
f 72/221/13 116/222/13 117/223/13
f 71/149/13 118/224/13 72/150/13
f 74/152/13 71/225/13 73/153/13
f 76/155/13 119/226/13 74/156/13
f 77/158/13 119/227/13 76/159/13
f 79/161/13 77/228/13 78/162/13
f 81/164/13 79/229/13 80/165/13
f 83/167/13 81/230/13 82/168/13
f 85/170/13 83/231/13 84/171/13
f 87/173/13 85/232/13 86/174/13
f 89/176/13 87/233/13 88/177/13
f 91/179/13 120/234/13 89/180/13
f 92/182/13 120/235/13 91/183/13
f 94/185/13 121/236/13 92/186/13
f 95/188/13 121/237/13 94/189/13
f 97/191/13 95/238/13 96/192/13
f 99/194/13 97/239/13 98/195/13
f 101/146/13 122/145/13 99/197/13
f 103/199/13 123/240/13 104/148/13
f 105/200/13 123/241/13 103/201/13
f 107/203/13 105/242/13 106/204/13
f 109/206/13 107/243/13 108/207/13
f 111/209/13 109/244/13 110/210/13
f 113/212/13 115/245/13 111/213/13
f 114/215/13 124/246/13 115/216/13
f 116/218/13 124/247/13 114/219/13
f 72/221/13 118/248/13 116/222/13
o Cylinder.002_Cylinder.003
v 0.000000 4.000024 -50.713280
v 0.047553 0.000024 -50.678730
v 0.000000 0.000024 -50.713280
v 0.047553 4.000024 -50.678730
v 0.029389 0.000024 -50.622829
v 0.029389 4.000024 -50.622829
v -0.029389 0.000024 -50.622829
v -0.029389 4.000024 -50.622829
v -0.047553 0.000024 -50.678730
v -0.047553 4.000024 -50.678730
vt 1.000000 0.000000
vt 0.000000 1.000000
vt 0.000000 0.000000
vt 1.000000 0.000000
vt 0.000000 1.000000
vt 0.000000 0.000000
vt 1.000000 0.000000
vt 0.000000 1.000000
vt 0.000000 0.000000
vt 0.975528 0.654508
vt 0.206107 0.095492
vt 0.024472 0.654509
vt 1.000000 0.000000
vt 0.000000 1.000000
vt 0.000000 0.000000
vt 1.000000 0.000000
vt 0.000000 1.000000
vt 0.000000 0.000000
vt 0.975528 0.654508
vt 0.206107 0.095492
vt 0.500000 1.000000
vt 1.000000 1.000000
vt 1.000000 1.000000
vt 1.000000 1.000000
vt 0.500000 1.000000
vt 0.793893 0.095491
vt 1.000000 1.000000
vt 1.000000 1.000000
vt 0.024472 0.654509
vt 0.793893 0.095491
vn 0.5878 0.0000 -0.8090
vn 0.5877 0.0000 -0.8090
vn 0.9511 0.0000 0.3090
vn 0.0000 0.0000 1.0000
vn 0.0000 1.0000 0.0000
vn -0.9511 0.0000 0.3090
vn -0.5877 0.0000 -0.8090
vn -0.5878 0.0000 -0.8090
vn -0.0000 -1.0000 -0.0000
usemtl None_metal.jpg
s 1
f 125/249/14 126/250/14 127/251/15
f 128/252/16 129/253/16 126/254/16
f 130/255/17 131/256/17 129/257/17
f 125/258/18 132/259/18 130/260/18
f 132/261/19 133/262/19 131/263/19
f 134/264/20 127/265/21 133/266/21
f 126/267/22 131/268/22 127/269/22
f 125/249/14 128/270/14 126/250/14
f 128/252/16 130/271/16 129/253/16
f 130/255/17 132/272/17 131/256/17
f 130/260/18 128/273/18 125/258/18
f 125/258/18 134/274/18 132/259/18
f 132/261/19 134/275/19 133/262/19
f 134/264/20 125/276/20 127/265/21
f 133/277/22 127/269/22 131/268/22
f 126/267/22 129/278/22 131/268/22
o Cylinder.001_Cylinder.004
v 0.000000 4.000020 -36.389610
v 0.047553 0.000020 -36.355061
v 0.000000 0.000020 -36.389610
v 0.047553 4.000020 -36.355061
v 0.029389 0.000020 -36.299160
v 0.029389 4.000020 -36.299160
v -0.029389 0.000020 -36.299160
v -0.029389 4.000020 -36.299160
v -0.047553 0.000020 -36.355061
v -0.047553 4.000020 -36.355061
vt 1.000000 0.000000
vt 0.000000 1.000000
vt 0.000000 0.000000
vt 1.000000 0.000000
vt 0.000000 1.000000
vt 0.000000 0.000000
vt 1.000000 0.000000
vt 0.000000 1.000000
vt 0.000000 0.000000
vt 0.975528 0.654508
vt 0.206107 0.095492
vt 0.024472 0.654509
vt 1.000000 0.000000
vt 0.000000 1.000000
vt 0.000000 0.000000
vt 1.000000 0.000000
vt 0.000000 1.000000
vt 0.000000 0.000000
vt 0.975528 0.654508
vt 0.206107 0.095492
vt 0.500000 1.000000
vt 1.000000 1.000000
vt 1.000000 1.000000
vt 1.000000 1.000000
vt 0.500000 1.000000
vt 0.793893 0.095491
vt 1.000000 1.000000
vt 1.000000 1.000000
vt 0.024472 0.654509
vt 0.793893 0.095491
vn 0.5878 0.0000 -0.8090
vn 0.5877 0.0000 -0.8090
vn 0.9511 0.0000 0.3090
vn 0.0000 0.0000 1.0000
vn 0.0000 1.0000 -0.0000
vn -0.9511 0.0000 0.3090
vn -0.5877 0.0000 -0.8090
vn -0.5878 0.0000 -0.8090
vn -0.0000 -1.0000 -0.0000
usemtl None_metal.jpg.001
s 1
f 135/279/23 136/280/24 137/281/24
f 138/282/25 139/283/25 136/284/25
f 140/285/26 141/286/26 139/287/26
f 135/288/27 142/289/27 140/290/27
f 142/291/28 143/292/28 141/293/28
f 144/294/29 137/295/30 143/296/30
f 136/297/31 141/298/31 137/299/31
f 135/279/23 138/300/23 136/280/24
f 138/282/25 140/301/25 139/283/25
f 140/285/26 142/302/26 141/286/26
f 140/290/27 138/303/27 135/288/27
f 135/288/27 144/304/27 142/289/27
f 142/291/28 144/305/28 143/292/28
f 144/294/29 135/306/29 137/295/30
f 143/307/31 137/299/31 141/298/31
f 136/297/31 139/308/31 141/298/31
